<svg id="Layer_1" data-name="Layer 1" xmlns="http://www.w3.org/2000/svg" viewBox="0 0 16 16"><defs><style>.cls-1{fill:#5589ff;}</style></defs><title>Netos_favicon</title><path class="cls-1" d="M13.15,6.51a1.6,1.6,0,1,0,0-2.26,1.58,1.58,0,0,0-.44,1.43l-1.38.52A3.2,3.2,0,0,0,10,4.88l.57-1.44a1,1,0,1,0,.11-2,1,1,0,0,0-.76,1.71l.09.08L9.46,4.65a3.21,3.21,0,0,0-4,2.1,3.27,3.27,0,0,0,0,1.91l-1.8,1a1.79,1.79,0,1,0,.21.56l1.82-1A3.26,3.26,0,0,0,7,10.54l-.59,1.28a1.4,1.4,0,1,0,1.14,1.63,1.42,1.42,0,0,0-.39-1.24A.9.9,0,0,0,7,12.06l.59-1.29a3.22,3.22,0,0,0,4-2.09,3.34,3.34,0,0,0,0-1.93l1.36-.51A1.44,1.44,0,0,0,13.15,6.51ZM6.57,12.78a.6.6,0,0,1-.85.85.59.59,0,0,1,0-.85h0A.59.59,0,0,1,6.57,12.78ZM9.92,9.13a2,2,0,1,1,0-2.84,2,2,0,0,1,0,2.84Zm3.79-4.31a.81.81,0,0,1,1.14,0A.8.8,0,0,1,13.72,6h0a.81.81,0,0,1,0-1.14Z"/></svg>